<svg viewBox="0 0 500 500" xmlns="http://www.w3.org/2000/svg"><style>.n{fill:#ccc}.c{fill:#222}@media(prefers-color-scheme:dark){.n{fill:#222}.c{fill:#ccc}}</style><circle cx="250" cy="250" r="240" class="c"/><path d="M174.761 400.437c.127 14.277 42.599 4.892 41.798-4.744v-118.84c0-14.534 3.931-25.599 11.796-33.198 7.734-7.735 17.6-11.599 29.596-11.599 12.003 0 21.799 3.864 29.396 11.599 7.736 7.599 11.602 18.664 11.602 33.198v123.584c-.267 16.225 41.749 4.39 41.791-4.744V262.451c-.665-23.728-8.061-41.725-22.195-53.992-14.263-12.133-29.997-18.197-47.196-18.197-22.263 0-40.261 8.201-53.99 24.595h-.8v-21.995c.317-14.154-41.901-5.419-41.798 4.745v202.83Zm4.472-297.948c9.89-9.889 27.399-13.843 37.286-3.954 9.662 9.662 7.289 28.957-2.371 38.616-9.888 9.889-27.321 20.215-37.206 10.327-9.664-9.66-7.368-35.33 2.291-44.989Z" class="n"/></svg>